<?xml version="1.0" encoding="UTF-8" standalone="no"?>
<!-- Created with Inkscape (http://www.inkscape.org/) -->

<svg
   xmlns:osb="http://www.openswatchbook.org/uri/2009/osb"
   xmlns:dc="http://purl.org/dc/elements/1.1/"
   xmlns:cc="http://creativecommons.org/ns#"
   xmlns:rdf="http://www.w3.org/1999/02/22-rdf-syntax-ns#"
   xmlns:svg="http://www.w3.org/2000/svg"
   xmlns="http://www.w3.org/2000/svg"
   xmlns:sodipodi="http://sodipodi.sourceforge.net/DTD/sodipodi-0.dtd"
   xmlns:inkscape="http://www.inkscape.org/namespaces/inkscape"
   width="145.34444mm"
   height="96.551865mm"
   viewBox="0 0 145.34444 96.551865"
   version="1.1"
   id="svg8"
   inkscape:version="0.92.1 r15371"
   sodipodi:docname="boner-logo.svg">
  <defs
     id="defs2">
    <linearGradient
       id="linearGradient4548"
       osb:paint="solid">
      <stop
         style="stop-color:#e5542f;stop-opacity:1;"
         offset="0"
         id="stop4546" />
    </linearGradient>
    <linearGradient
       id="linearGradient4536"
       osb:paint="solid">
      <stop
         style="stop-color:#e5542f;stop-opacity:1;"
         offset="0"
         id="stop4534" />
    </linearGradient>
    <linearGradient
       id="linearGradient4530"
       osb:paint="solid">
      <stop
         style="stop-color:#ffffff;stop-opacity:1;"
         offset="0"
         id="stop4528" />
    </linearGradient>
  </defs>
  <sodipodi:namedview
     id="base"
     pagecolor="#ffffff"
     bordercolor="#666666"
     borderopacity="1.0"
     inkscape:pageopacity="0.0"
     inkscape:pageshadow="2"
     inkscape:zoom="0.7"
     inkscape:cx="436.57672"
     inkscape:cy="148.09032"
     inkscape:document-units="mm"
     inkscape:current-layer="layer1"
     showgrid="false"
     fit-margin-top="0"
     fit-margin-left="0"
     fit-margin-right="0"
     fit-margin-bottom="0"
     inkscape:window-width="1366"
     inkscape:window-height="741"
     inkscape:window-x="0"
     inkscape:window-y="27"
     inkscape:window-maximized="1" />
  <metadata
     id="metadata5">
    <rdf:RDF>
      <cc:Work
         rdf:about="">
        <dc:format>image/svg+xml</dc:format>
        <dc:type
           rdf:resource="http://purl.org/dc/dcmitype/StillImage" />
        <dc:title />
      </cc:Work>
    </rdf:RDF>
  </metadata>
  <g
     inkscape:label="Layer 1"
     inkscape:groupmode="layer"
     id="layer1"
     style="opacity:1"
     transform="translate(85.614335,-11.717305)">
    <path
       style="fill:#e5542f;fill-opacity:0.94117647;stroke-width:1.33333325"
       d="M 171.55273 249.18164 C 151.26873 249.14623 132.16025 261.10358 122.21875 282.08789 C 118.21101 290.54734 118 291.79666 118 306.99414 C 118 322.21313 118.20675 323.43019 122.24609 331.95703 C 129.65916 347.60565 142.49688 358.85109 157.58008 362.91016 C 166.96749 365.43753 176.36211 365.4476 185.97656 362.94336 C 195.40567 360.48738 201.36282 357.10325 209.13867 349.78711 C 238.27824 322.37022 231.07399 272.52651 195.42578 254.9082 C 187.60697 251.04394 179.48995 249.1955 171.55273 249.18164 z M 172.33203 275.41211 C 180.75601 275.50687 189.12954 279.89498 194.19531 288.53906 C 199.32741 297.29634 200.20152 312.47114 196.10742 321.72656 C 192.59162 329.67457 190.05584 332.58276 184 335.60938 C 169.67961 342.76644 155.12754 337.48219 148.3418 322.66016 C 145.43837 316.31826 145.08552 314.01917 145.61328 304.90234 C 146.11351 296.26113 146.90926 293.31264 150.16406 288.04492 C 155.4332 279.5171 163.90805 275.31735 172.33203 275.41211 z "
       transform="matrix(0.26458333,0,0,0.26458333,-85.614335,11.717305)"
       id="path4526" />
    <path
       style="fill:#e5542f;fill-opacity:0.94117647;stroke-width:1.33333325"
       d="M 420.39062 249.27539 C 411.90414 249.10337 403.4607 250.92728 395.48633 254.75781 C 366.09438 268.87646 354.34963 304.03055 369.00781 334.00781 C 375.73764 347.77096 389.22003 358.87479 404.0332 362.85547 C 429.91798 369.81135 456.92501 358.72617 467.98633 336.60547 L 472.125 328.32617 L 457.21875 327.94727 L 442.3125 327.56836 L 437.64648 332.23633 C 431.72737 338.15546 425.77607 340.10851 415.85156 339.39062 C 409.89454 338.95972 406.63814 337.87275 402.43164 334.9082 C 399.3768 332.75526 396.6521 330.30981 396.37695 329.47461 C 396.08279 328.58226 411.43555 321.33225 433.60547 311.89258 L 471.33398 295.82812 L 471.1875 291.13867 C 470.84696 280.24638 457.54133 261.88758 445.55664 255.77344 C 437.40751 251.61605 428.87711 249.44742 420.39062 249.27539 z M 418.66602 274.99414 C 427.63226 274.99414 429.55077 275.44909 434.58008 278.77734 C 437.76599 280.88568 439.78861 283.06745 439.14844 283.70312 C 438.51642 284.33068 427.2652 289.37684 414.14453 294.91797 C 401.0239 300.4591 389.99382 304.99414 389.63477 304.99414 C 389.27537 304.99414 389.30385 302.59326 389.69727 299.66016 C 390.70859 292.12023 396.53572 282.89318 402.97656 278.63086 C 407.75759 275.4669 409.79686 274.99414 418.66602 274.99414 z "
       transform="matrix(0.26458333,0,0,0.26458333,-85.614335,11.717305)"
       id="path4522" />
    <path
       style="fill:#e5542f;fill-opacity:0.94117647;stroke-width:1.33333325"
       d="M 48.691406 209.35742 C 27.490802 209.4124 8.2284118 223.10539 2.1132812 243.69727 C 0.33272321 249.69311 0 259.56922 0 306.56836 L 0 362.32617 L 32.386719 362.32617 C 67.428989 362.32617 75.523708 361.22489 85 355.16211 C 97.969611 346.86435 103.21693 336.47908 103.27344 318.99414 C 103.30512 309.18876 102.73475 305.71462 100.16211 300.00391 C 97.107472 293.22324 88.282733 283.66016 85.080078 283.66016 C 84.211656 283.66016 85.047646 282.01078 86.9375 279.99414 C 93.838793 272.62973 96.543792 265.23148 96.568359 253.66016 C 96.586875 244.95564 95.956613 241.62338 93.136719 235.54492 C 86.781213 221.84515 74.962087 213.35035 57.863281 210.18945 C 54.788271 209.62101 51.720064 209.34957 48.691406 209.35742 z M 48.410156 236.99219 C 58.437146 236.74277 68.445312 243.32569 68.445312 254.83789 C 68.445312 262.1388 65.303255 267.25122 59.271484 269.77148 C 56.391329 270.97485 49.900015 271.66016 41.376953 271.66016 L 28 271.66016 L 28 262.60938 C 28 255.84572 28.758105 252.07915 31 247.70703 C 34.679739 240.53089 41.549584 237.16284 48.410156 236.99219 z M 28 298.32617 L 44.042969 298.32617 C 54.988961 298.32617 61.54477 298.93622 64.679688 300.24609 C 70.996242 302.8853 74.655684 309.32376 74.662109 317.8125 C 74.667934 325.7833 71.393706 330.93617 64.486328 333.82227 C 61.574372 335.03897 54.660312 335.66016 44.042969 335.66016 L 28 335.66016 L 28 316.99414 L 28 298.32617 z "
       id="path4518"
       transform="matrix(0.26458333,0,0,0.26458333,-85.614335,11.717305)" />
    <path
       inkscape:connector-curvature="0"
       style="fill:#e5542f;fill-opacity:0.94117647;stroke-width:0.35277775"
       d="m -20.696236,99.380797 c 0.01026,-12.04409 0.563806,-14.61218 3.862302,-17.91856 3.00495,-3.01213 7.2295304,-4.29156 11.7211504,-3.54978 4.91424003,0.81157 8.4735,3.73198 9.80592,8.04585 0.63727,2.06326 0.70919,3.2762 0.70919,11.96034 v 9.664233 h -3.70416 -3.70417 l -7e-4,-9.260413 c -3.6e-4,-8.11231 -0.077,-9.41263 -0.61737,-10.48811 -1.80432,-3.59128 -7.23192,-3.81701 -9.5174204,-0.39584 -0.78288,1.17191 -0.80078,1.41044 -0.80078,10.67153 l 1.6e-4,9.472833 h -3.880555 -3.880556 l 0.007,-8.202083 z"
       id="path4512" />
    <path
       inkscape:connector-curvature="0"
       style="fill:#e5542f;fill-opacity:0.94117647;stroke-width:0.35277775"
       d="m 44.560666,97.769127 c 0,-10.93834 0.17284,-12.09993 2.23128,-14.99516 2.27876,-3.20513 5.40572,-4.79218 10.02774,-5.08946 l 2.91042,-0.18719 v 3.52851 3.5285 l -2.17068,0.19684 c -2.29068,0.20771 -3.42129,0.81217 -4.68669,2.50568 -0.68667,0.91899 -0.73318,1.51464 -0.8315,10.64973 l -0.10415,9.676303 h -3.68821 -3.68821 z"
       id="path4510" />
    <g
       id="g4572"
       transform="translate(6.8725218)"
       style="">
      <path
         id="path4508"
         d="m -20.716383,72.243697 c -0.477831,-0.16989 -1.209273,-0.72317 -1.625428,-1.22952 -0.691486,-0.84136 -0.8555,-0.88617 -1.904724,-0.52041 -4.30372,1.50029 -9.546992,-0.95612 -12.030742,-5.63626 -1.191228,-2.24463 -1.172499,-6.7998 0.03828,-9.30935 1.00934,-2.09203 3.261956,-5.10009 5.271198,-7.03895 l 1.44513,-1.39452 v -5.49939 -5.499399 l -1.619811,-1.572757 c -1.869112,-1.814819 -4.318487,-5.173438 -5.263356,-7.2172 -0.398057,-0.860999 -0.712858,-2.531677 -0.807512,-4.285514 -0.135266,-2.50637 -0.04351,-3.118212 0.71664,-4.778597 1.640536,-3.583405 4.617247,-5.92269 8.252449,-6.48529 1.996348,-0.308964 4.98692,0.616466 7.028773,2.175046 l 1.649987,1.259463 0.930441,-0.878304 c 3.823844,-3.609565 9.9801544,-3.372972 13.6941844,0.52628 1.95522,2.052736 3.04106,4.686833 3.02149,7.329771 -0.0294,3.974322 -1.88918,7.542275 -6.12729,11.755243 l -2.4260004,2.411598 v 5.11258 5.11257 l 2.6527904,2.63563 c 6.75219,6.7085 7.89696003,12.17699 3.69051,17.62932 -2.5577,3.31525 -6.9722704,4.82202 -10.5112204,3.58765 -1.48566,-0.51819 -1.53093,-0.51152 -1.89105,0.27887 -0.596316,1.30877 -2.673235,2.06884 -4.184739,1.53144 z"
         style="fill:#532215;fill-opacity:0.94117647;stroke-width:0.35277775"
         inkscape:connector-curvature="0" />
      <path
         id="path4506"
         d="m -25.744536,66.690027 c 1.227568,-0.35206 1.760827,-0.72382 3.302656,-2.30249 0.91741,-0.93932 1.088239,-1.34652 0.543232,-1.2949 -0.740014,0.0701 -3.645118,-3.64721 -3.55262,-4.54587 0.02995,-0.29104 0.07864,-0.96806 0.108201,-1.50449 0.11799,-2.14171 4.029946,-3.05102 5.303502,-1.23277 l 0.511284,0.72996 0.659867,-0.8149 c 0.50443,-0.62294 1.038691,-0.8228 2.26802,-0.84843 1.38358,-0.0289 1.72641,0.11426 2.45507,1.0248 0.46581,0.58208 0.84772,1.41127 0.84868,1.84265 0.003,1.33902 -1.41505,3.78075 -2.67552,4.60701 -0.66181,0.43383 -1.203283,0.92722 -1.203283,1.09645 0,0.66796 2.302203,2.50495 3.763213,3.00277 1.36566,0.46533 1.71821,0.46587 3.03607,0.005 1.8196904,-0.6368 3.5954004,-2.48918 4.2540804,-4.43775 0.60034,-1.77598 0.24369,-3.75015 -1.0266,-5.6825 -0.85418,-1.29937 -4.8530404,-5.46819 -6.4188604,-6.69166 -0.76773,-0.59989 -0.78568,-0.78231 -0.78568,-7.98415 v -7.370241 l 3.0868,-3.163512 c 3.5137404,-3.601051 3.6738804,-3.792737 4.4947304,-5.380077 1.00696,-1.947247 0.90922,-5.71219 -0.17416,-6.708953 -0.10545,-0.09701 -0.46953,-0.612952 -0.80907,-1.146528 -0.33954,-0.533576 -0.78377,-0.970139 -0.98719,-0.970139 -0.20341,0 -0.6002,-0.230353 -0.88174,-0.511895 -0.6185004,-0.618506 -4.7942404,-0.528217 -5.0064004,0.108249 -0.074,0.222006 -0.31933,0.403646 -0.54518,0.403646 -0.22584,0 -1.14036,0.79375 -2.032257,1.763889 -2.086987,2.270072 -2.929837,2.311108 -4.704584,0.229052 -0.719565,-0.84416 -1.947521,-1.876035 -2.728796,-2.293055 -1.480732,-0.790371 -3.973188,-1.019068 -4.355987,-0.399687 -0.121871,0.197193 -0.334116,0.288984 -0.471657,0.203981 -0.361368,-0.223339 -1.523252,0.814734 -2.689828,2.4032 -1.183221,1.61113 -1.49393,4.348445 -0.67364,5.934704 0.275872,0.533482 0.475079,1.011318 0.442676,1.061858 -0.157216,0.245219 0.483422,1.679391 0.750171,1.679391 0.167877,0 0.401109,0.302084 0.518294,0.671299 0.218409,0.68814 3.126952,3.820337 4.861567,5.235395 l 0.970139,0.791417 v 7.414116 c 0,7.18214 -0.02392,7.43333 -0.76497,8.02803 -1.199346,0.96251 -3.916931,3.72214 -4.79238,4.86654 -2.136772,2.7932 -2.898257,6.29313 -1.799534,8.27098 1.032464,1.85858 1.811711,2.82222 2.282179,2.82222 0.268725,0 0.488594,0.15421 0.488594,0.34269 0,0.18848 0.515938,0.49166 1.146528,0.67374 1.532368,0.44245 1.67803,0.44594 2.984383,0.0713 z"
         style="fill:#ffecce;fill-opacity:0.94117647;stroke-width:0.35277775"
         inkscape:connector-curvature="0" />
      <path
         id="path4504"
         d="m -41.334576,41.745577 c -0.346766,-0.34676 -0.531025,-1.00566 -0.466171,-1.66697 0.08412,-0.857745 0.41154,-1.264323 1.518356,-1.885435 2.066022,-1.159388 4.019056,-1.35439 6.319114,-0.630934 2.313848,0.727795 3.123801,1.511308 2.967747,2.870869 -0.168667,1.46943 -1.56518,2.05451 -3.236786,1.35607 -1.570443,-0.65617 -2.961188,-0.65595 -4.109797,6.5e-4 -1.176006,0.67227 -2.292456,0.65576 -2.992463,-0.0443 z"
         style="fill:#512010;fill-opacity:0.94117647;stroke-width:0.35277775"
         inkscape:connector-curvature="0" />
      <path
         id="path3695"
         d="m -7.9150336,41.783177 c -1.11993,-0.79371 -1.05566,-2.381968 0.13425,-3.317956 2.00418,-1.576489 5.69208,-1.830148 8.33624003,-0.573378 1.49029997,0.708334 1.98554997,1.870584 1.37142997,3.218424 -0.45846,1.00621 -1.40207997,1.09522 -3.55571,0.33537 -1.31009,-0.46223 -1.64117,-0.45961 -2.95477,0.0234 -2.42489,0.89159 -2.50589,0.89923 -3.33144,0.31416 z"
         style="fill:#512010;fill-opacity:0.94117647;stroke-width:0.35277775"
         inkscape:connector-curvature="0" />
      <path
         sodipodi:nodetypes="ccccczc"
         inkscape:connector-curvature="0"
         id="path4554"
         d="m -23.245536,70.167037 2.55134,-1.370164 1.039434,-0.330729 1.370164,0.330729 2.456845,1.228424 c 0,0 -1.26859,2.472005 -3.685267,2.456846 -2.416677,-0.01516 -3.732516,-2.315106 -3.732516,-2.315106 z"
         style="fill:#e71b23;fill-opacity:0.94117647;fill-rule:evenodd;stroke:none;stroke-width:0.26458332px;stroke-linecap:butt;stroke-linejoin:miter;stroke-opacity:1" />
    </g>
  </g>
</svg>
